<svg width="20" height="18" viewBox="0 0 20 18" fill="none" xmlns="http://www.w3.org/2000/svg">
<path d="M5.55197 10L6.39897 7.8852L7.24398 10H5.55197ZM14 9H15V11H14C13.4477 11 13 10.5523 13 10C13 9.4477 13.4477 9 14 9ZM19 0H1C0.44772 0 0 0.44772 0 1V17C0 17.5523 0.44772 18 1 18H19C19.5523 18 20 17.5523 20 17V1C20 0.44772 19.5523 0 19 0ZM10.598 13H8.443L8.043 12H4.75297L4.35297 13H2.19897L3.39797 10.002L3.39897 10L5.39897 5H7.39897L10.598 13ZM15 5H17V13H14C12.3431 13 11 11.6569 11 10C11 8.3431 12.3431 7 14 7H15V5Z" fill="#A069FB"/>
</svg>
