<svg width="31" height="31" viewBox="0 0 31 31" fill="none" xmlns="http://www.w3.org/2000/svg">
<path d="M24.8354 24.1959L27.1188 21.9125L29.4021 24.1959C30.6632 25.457 30.6632 27.5015 29.4021 28.7626C28.141 30.0237 26.0965 30.0237 24.8354 28.7626C23.5744 27.5015 23.5744 25.457 24.8354 24.1959ZM11.4678 1.39465L26.0814 16.0082C26.5858 16.5126 26.5858 17.3304 26.0814 17.8348L15.1212 28.795C14.6168 29.2994 13.7989 29.2994 13.2945 28.795L2.33437 17.8348C1.82995 17.3304 1.82995 16.5126 2.33437 16.0082L12.3812 5.96139L9.64115 3.22135L11.4678 1.39465ZM14.2078 7.78808L5.07441 16.9215H23.3413L14.2078 7.78808Z" fill="#A069FB"/>
</svg>
