<?xml version="1.0" encoding="UTF-8"?>
<svg id="Layer_1" data-name="Layer 1" xmlns="http://www.w3.org/2000/svg" viewBox="0 0 741.29 1025.84">
  <defs>
    <style>
      .cls-1 {
        stroke-width: 0px;
      }
    </style>
  </defs>
  <path class="cls-1" d="M456.39,342.97c-5.39,0-10.01-4.08-10.57-9.55-.6-5.84,3.65-11.06,9.5-11.66l208.77-21.39c1.09-.11,2.2-.05,3.27.17l57.94,12.2c5.43,1.14,9.45,6.14,8.83,11.66-.72,6.33-6.67,10.53-12.76,9.25l-53.51-11.26c-2.15-.45-4.36-.57-6.55-.35l-203.82,20.88c-.37.04-.73.05-1.1.05Z"/>
  <path class="cls-1" d="M284.89,342.97c-.36,0-.73-.02-1.1-.05l-203.82-20.88c-2.19-.22-4.4-.11-6.55.35l-52.93,11.14c-5.64,1.19-11.57-1.97-13.05-7.54-1.58-5.94,2.15-11.9,8.08-13.15l56.76-11.95c2.15-.45,4.36-.57,6.55-.35l207.12,21.22c5.84.6,10.09,5.82,9.5,11.66-.56,5.48-5.18,9.55-10.57,9.55Z"/>
  <path class="cls-1" d="M381.75,121.83c-3.28,0-6.52-1.52-8.61-4.38l-66.03-90.75c-3.46-4.75-2.41-11.4,2.34-14.86,4.75-3.45,11.4-2.41,14.86,2.34l66.03,90.75c3.46,4.75,2.41,11.4-2.34,14.86-1.89,1.37-4.08,2.04-6.25,2.04Z"/>
  <path class="cls-1" d="M353.13,121.83c-2.17,0-4.36-.66-6.25-2.04-4.75-3.46-5.8-10.11-2.34-14.86L410.57,14.19c3.45-4.75,10.11-5.8,14.86-2.34,4.75,3.46,5.8,10.11,2.34,14.86l-66.03,90.75c-2.08,2.86-5.32,4.38-8.61,4.38Z"/>
  <path class="cls-1" d="M228.63,224.88l-150.6,305.66c-27.98,56.78-47.43,117.47-56.47,180.12-10.31,71.41-8.91,154.53,37.92,201.36,93.65,93.65,168.92-37.79,168.92-37.79,0,0,252.52-507.83,44.35-660.51-14.84-10.88-35.98-5.34-44.11,11.17Z"/>
  <path class="cls-1" d="M460.34,213.5c-186.34,136.66-3.54,557.91,36.84,644.75,8.84,19.01,20.62,36.55,35.34,51.49,17.61,17.87,42.6,35.73,72.12,35.73,21.03,0,44.37-9.07,68.96-33.67,46.83-46.83,48.22-129.95,37.92-201.36-9.04-62.65-28.49-123.34-56.47-180.12l-150.6-305.66c-5.27-10.7-16.01-16.79-26.95-16.79-5.94,0-11.94,1.8-17.16,5.62Z"/>
  <path class="cls-1" d="M482.61,895.07c-6.22-15.53-14.34-35.69-16.5-40.52-.31-.69-.62-1.38-.93-2.07-4.23-9.36-8.35-18.78-12.38-28.23-5.09-11.94-10.02-23.95-14.81-36.02-5.59-14.09-10.97-28.27-16.14-42.52-5.74-15.82-11.21-31.73-16.38-47.73-5.53-17.11-10.73-34.33-15.53-51.66-2.18-7.86-4.27-15.74-6.28-23.64-.07-.28-.14-.57-.22-.85-2.32-9.17-10.28-13.44-17.9-12.89-7.62-.54-15.58,3.72-17.9,12.89-.07.28-.14.57-.22.85-2.01,7.9-4.1,15.78-6.28,23.64-4.8,17.33-10,34.55-15.53,51.66-5.18,16.01-10.65,31.92-16.38,47.73-5.17,14.25-10.55,28.43-16.14,42.52-4.78,12.07-9.72,24.08-14.81,36.02-4.03,9.45-8.15,18.87-12.38,28.23-.31.69-.62,1.38-.93,2.07-2.16,4.83-10.28,24.99-16.5,40.52-5.68,14.17-5.75,30.04.09,44.15.03.08.07.16.1.24,3.3,7.94,7.42,15.54,12.29,22.62,7.45,10.85,16.63,20.51,27.09,28.5,10.55,8.06,22.39,14.42,34.95,18.74,12.96,4.45,26.64,6.7,40.34,6.7.73,0,1.44-.03,2.17-.04.75.01,1.5.04,2.26.04,13.7,0,27.38-2.25,40.34-6.7,12.56-4.31,24.4-10.67,34.95-18.74,10.46-8,19.64-17.65,27.09-28.5,4.87-7.09,8.99-14.68,12.29-22.62.03-.08.07-.16.1-.24,5.84-14.11,5.77-29.98.09-44.15Z"/>
  <path class="cls-1" d="M635.92,71.59c-.98-6.9-7.86-10.83-14.09-8.65l-54.74,19.26c-2.05.72-3.97,1.75-5.7,3.05l-74.46,55.87v-67.15c0-7.31-2.1-14.27-5.74-20.19-.24-.4-.49-.79-.74-1.17-.24-.37-.49-.73-.75-1.09-6.08-8.65-15.7-14.6-26.9-15.21-.37-.02-.74,0-1.11,0-.52-.02-1.04,0-1.56,0-.54,0-1.08.01-1.62.05-8.84.42-16.86,4-22.88,9.71-14.58,13.83-33.37,22.37-53.46,22.37h-13.25c-20.1,0-38.88-8.55-53.46-22.37-6.02-5.71-14.03-9.29-22.88-9.71-.53-.03-1.08-.04-1.62-.05-.52,0-1.04-.01-1.56,0-.37,0-.74-.02-1.11,0-11.19.62-20.81,6.56-26.9,15.21-.26.36-.5.72-.75,1.09-.25.39-.51.78-.74,1.17-3.64,5.92-5.74,12.88-5.74,20.19v67.15l-74.46-55.87c-1.73-1.3-3.66-2.33-5.7-3.05l-54.74-19.26c-6.22-2.18-13.11,1.75-14.09,8.65-.72,5.06,2.58,9.85,7.4,11.55l51.27,18.04c2.05.72,3.97,1.75,5.7,3.05l127.93,95.98c5.45,4.97,10.65,10.04,15.02,14.37,19.16,18.99,35.66,42.95,46.75,60.91,3.72,6.03,10.04,9.01,16.29,8.91,6.25.1,12.56-2.88,16.29-8.91,11.09-17.96,27.59-41.93,46.75-60.91,4.37-4.33,9.57-9.4,15.02-14.37l127.93-95.98c1.73-1.3,3.66-2.33,5.7-3.05l51.27-18.04c4.82-1.7,8.12-6.49,7.4-11.55Z"/>
</svg>