<svg width="20" height="20" viewBox="0 0 20 20" fill="none" xmlns="http://www.w3.org/2000/svg">
<path d="M10 20C4.47715 20 0 15.5228 0 10C0 4.47715 4.47715 0 10 0C15.5228 0 20 4.47715 20 10C20 15.5228 15.5228 20 10 20ZM9 13V15H11V13H9ZM11 11.3551C12.4457 10.9248 13.5 9.5855 13.5 8C13.5 6.067 11.933 4.5 10 4.5C8.302 4.5 6.88637 5.70919 6.56731 7.31346L8.5288 7.70577C8.6656 7.01823 9.2723 6.5 10 6.5C10.8284 6.5 11.5 7.17157 11.5 8C11.5 8.8284 10.8284 9.5 10 9.5C9.4477 9.5 9 9.9477 9 10.5V12H11V11.3551Z" fill="#A069FB"/>
</svg>
